<?xml version="1.0" encoding="utf-8"?>
<!-- Generator: Adobe Illustrator 21.0.2, SVG Export Plug-In . SVG Version: 6.00 Build 0)  -->
<svg version="1.1" id="Layer_1" xmlns="http://www.w3.org/2000/svg" xmlns:xlink="http://www.w3.org/1999/xlink" x="0px" y="0px"
	 viewBox="0 0 150 150" style="enable-background:new 0 0 150 150;" xml:space="preserve">
<style type="text/css">
	.st0{fill:#4495B9;}
	.st1{fill:#333333;}
	.st2{fill:#FFFFFF;}
	.st3{fill:#A1A8BD;}
	.st4{opacity:0.5;fill:#D2D7D4;enable-background:new    ;}
	.st5{fill:#F1F2F7;}
	.st6{fill:#2B2C2B;}
	.st7{fill:#3E3E3E;}
	.st8{fill:#383938;}
	.st9{opacity:0.5;fill:#A1A8BD;enable-background:new    ;}
</style>
<ellipse class="st0" cx="75" cy="75" rx="75" ry="75"/>
<g>
	<path class="st1" d="M81.9,122.3H68.1c-1.1,0-2-0.9-2-2V62.7c0-1.1,0.9-2,2-2h13.8c1.1,0,2,0.9,2,2v57.6
		C83.9,121.4,83,122.3,81.9,122.3z"/>
	<g>
		<rect x="71.3" y="117.8" class="st2" width="7.5" height="1.6"/>
		<g>
			<g>
				<g>
					<rect x="69.7" y="35.9" class="st3" width="10.6" height="23.8"/>
					<rect x="69.7" y="38.3" class="st4" width="0.8" height="17.7"/>
					<rect x="79.5" y="38.3" class="st4" width="0.8" height="17.7"/>
				</g>
				<g>
					<rect x="72" y="46.4" class="st5" width="6" height="9.6"/>
					<polygon class="st2" points="73.8,42.9 72,46.4 78,46.4 76.2,42.9 					"/>
					<rect x="73.8" y="38.3" class="st2" width="2.4" height="4.6"/>
				</g>
				<rect x="69.7" y="47.6" class="st3" width="10.6" height="8.4"/>
				<rect x="66.1" y="64.2" class="st3" width="17.8" height="9.5"/>
				<path class="st6" d="M72.7,34.8v-6.7c0-0.3,0.2-0.5,0.5-0.5h3.6c0.3,0,0.5,0.2,0.5,0.5v6.7H72.7z"/>
				<polygon class="st7" points="77.3,34.8 72.7,34.8 69.7,35.9 80.3,35.9 				"/>
				<g>
					<rect x="69.7" y="56" class="st6" width="10.6" height="3.7"/>
					<g>
						<path class="st8" d="M71,59.1c0,0.1-0.1,0.2-0.2,0.2l0,0c-0.1,0-0.2-0.1-0.2-0.2v-2.5c0-0.1,0.1-0.2,0.2-0.2l0,0
							c0.1,0,0.2,0.1,0.2,0.2V59.1z"/>
						<path class="st8" d="M72,59.1c0,0.1-0.1,0.2-0.2,0.2l0,0c-0.1,0-0.2-0.1-0.2-0.2v-2.5c0-0.1,0.1-0.2,0.2-0.2l0,0
							c0.1,0,0.2,0.1,0.2,0.2V59.1z"/>
						<path class="st8" d="M73.1,59.1c0,0.1-0.1,0.2-0.2,0.2l0,0c-0.1,0-0.2-0.1-0.2-0.2v-2.5c0-0.1,0.1-0.2,0.2-0.2l0,0
							c0.1,0,0.2,0.1,0.2,0.2V59.1z"/>
						<path class="st8" d="M74.1,59.1c0,0.1-0.1,0.2-0.2,0.2l0,0c-0.1,0-0.2-0.1-0.2-0.2v-2.5c0-0.1,0.1-0.2,0.2-0.2l0,0
							c0.1,0,0.2,0.1,0.2,0.2V59.1z"/>
						<path class="st8" d="M75.2,59.1c0,0.1-0.1,0.2-0.2,0.2l0,0c-0.1,0-0.2-0.1-0.2-0.2v-2.5c0-0.1,0.1-0.2,0.2-0.2l0,0
							c0.1,0,0.2,0.1,0.2,0.2V59.1z"/>
						<path class="st8" d="M76.2,59.1c0,0.1-0.1,0.2-0.2,0.2l0,0c-0.1,0-0.2-0.1-0.2-0.2v-2.5c0-0.1,0.1-0.2,0.2-0.2l0,0
							c0.1,0,0.2,0.1,0.2,0.2V59.1z"/>
						<path class="st8" d="M77.2,59.1c0,0.1-0.1,0.2-0.2,0.2l0,0c-0.1,0-0.2-0.1-0.2-0.2v-2.5c0-0.1,0.1-0.2,0.2-0.2l0,0
							c0.1,0,0.2,0.1,0.2,0.2V59.1z"/>
						<path class="st8" d="M78.3,59.1c0,0.1-0.1,0.2-0.2,0.2l0,0c-0.1,0-0.2-0.1-0.2-0.2v-2.5c0-0.1,0.1-0.2,0.2-0.2l0,0
							c0.1,0,0.2,0.1,0.2,0.2V59.1z"/>
						<path class="st8" d="M79.3,59.1c0,0.1-0.1,0.2-0.2,0.2l0,0c-0.1,0-0.2-0.1-0.2-0.2v-2.5c0-0.1,0.1-0.2,0.2-0.2l0,0
							c0.1,0,0.2,0.1,0.2,0.2V59.1z"/>
					</g>
				</g>
				<g>
					<rect x="69.7" y="35.9" class="st6" width="10.6" height="3.7"/>
					<g>
						<path class="st8" d="M71,38.9c0,0.1-0.1,0.2-0.2,0.2l0,0c-0.1,0-0.2-0.1-0.2-0.2v-2.5c0-0.1,0.1-0.2,0.2-0.2l0,0
							c0.1,0,0.2,0.1,0.2,0.2V38.9z"/>
						<path class="st8" d="M72,38.9c0,0.1-0.1,0.2-0.2,0.2l0,0c-0.1,0-0.2-0.1-0.2-0.2v-2.5c0-0.1,0.1-0.2,0.2-0.2l0,0
							c0.1,0,0.2,0.1,0.2,0.2V38.9z"/>
						<path class="st8" d="M73.1,38.9c0,0.1-0.1,0.2-0.2,0.2l0,0c-0.1,0-0.2-0.1-0.2-0.2v-2.5c0-0.1,0.1-0.2,0.2-0.2l0,0
							c0.1,0,0.2,0.1,0.2,0.2V38.9z"/>
						<path class="st8" d="M74.1,38.9c0,0.1-0.1,0.2-0.2,0.2l0,0c-0.1,0-0.2-0.1-0.2-0.2v-2.5c0-0.1,0.1-0.2,0.2-0.2l0,0
							c0.1,0,0.2,0.1,0.2,0.2V38.9z"/>
						<path class="st8" d="M75.2,38.9c0,0.1-0.1,0.2-0.2,0.2l0,0c-0.1,0-0.2-0.1-0.2-0.2v-2.5c0-0.1,0.1-0.2,0.2-0.2l0,0
							c0.1,0,0.2,0.1,0.2,0.2V38.9z"/>
						<path class="st8" d="M76.2,38.9c0,0.1-0.1,0.2-0.2,0.2l0,0c-0.1,0-0.2-0.1-0.2-0.2v-2.5c0-0.1,0.1-0.2,0.2-0.2l0,0
							c0.1,0,0.2,0.1,0.2,0.2V38.9z"/>
						<path class="st8" d="M77.2,38.9c0,0.1-0.1,0.2-0.2,0.2l0,0c-0.1,0-0.2-0.1-0.2-0.2v-2.5c0-0.1,0.1-0.2,0.2-0.2l0,0
							c0.1,0,0.2,0.1,0.2,0.2V38.9z"/>
						<path class="st8" d="M78.3,38.9c0,0.1-0.1,0.2-0.2,0.2l0,0C78,39.1,78,39,78,38.9v-2.5c0-0.1,0.1-0.2,0.2-0.2l0,0
							c0.1,0,0.2,0.1,0.2,0.2L78.3,38.9L78.3,38.9z"/>
						<path class="st8" d="M79.3,38.9c0,0.1-0.1,0.2-0.2,0.2l0,0c-0.1,0-0.2-0.1-0.2-0.2v-2.5c0-0.1,0.1-0.2,0.2-0.2l0,0
							c0.1,0,0.2,0.1,0.2,0.2V38.9z"/>
					</g>
				</g>
				<path class="st9" d="M77.3,34.8L77.3,34.8v-6.7c0-0.3-0.2-0.5-0.5-0.5H75v32h5.3V56v-8.4v-9.3v-2.4L77.3,34.8z"/>
			</g>
			<rect x="69.7" y="59.7" class="st3" width="10.6" height="1"/>
		</g>
	</g>
	<circle class="st2" cx="75" cy="69" r="3.2"/>
</g>
</svg>
